<?xml version="1.0" encoding="UTF-8" standalone="no"?>
<!-- Generator: Adobe Illustrator 15.0.0, SVG Export Plug-In . SVG Version: 6.00 Build 0)  -->
<!DOCTYPE svg  PUBLIC '-//W3C//DTD SVG 1.1//EN'  'http://www.w3.org/Graphics/SVG/1.1/DTD/svg11.dtd'>
<svg id="svg3070" xmlns:rdf="http://www.w3.org/1999/02/22-rdf-syntax-ns#" xmlns="http://www.w3.org/2000/svg" enable-background="new 224.73 14.583 53.385 51.028" xml:space="preserve" height="51.028px" viewBox="224.73 14.583 53.385 51.028" width="53.385px" version="1.1" xmlns:xlink="http://www.w3.org/1999/xlink" y="0px" x="0px" xmlns:cc="http://creativecommons.org/ns#" xmlns:dc="http://purl.org/dc/elements/1.1/">
<g id="g3019" fill="#fff" transform="matrix(1.0188 0 0 -1.0188 170.6 498.03)">
	<path id="path28" d="m68.082 429.78v26.577h-8.835v-26.577h8.835zm-4.417 30.2c3.08 0 4.998 2.041 4.998 4.592-0.058 2.608-1.918 4.592-4.939 4.592-3.023 0-4.998-1.984-4.998-4.592 0-2.551 1.916-4.592 4.882-4.592h0.057z"/>
	<path id="path30" d="m72.97 429.78h8.833v14.842c0 0.795 0.058 1.588 0.291 2.156 0.637 1.587 2.091 3.231 4.532 3.231 3.197 0 4.475-2.438 4.475-6.01v-14.219h8.833v15.239c0 8.163-4.357 11.962-10.17 11.962-4.765 0-6.857-2.664-8.02-4.479h0.058v3.855h-8.832c0.116-2.5 0-26.58 0-26.58z"/>
</g>
</svg>
