<?xml version="1.0" encoding="utf-8"?>
<!-- Generator: Adobe Illustrator 15.0.0, SVG Export Plug-In . SVG Version: 6.00 Build 0)  -->
<!DOCTYPE svg PUBLIC "-//W3C//DTD SVG 1.1//EN" "http://www.w3.org/Graphics/SVG/1.1/DTD/svg11.dtd">
<svg version="1.1"
	 id="svg3070" inkscape:version="0.48.0 r9654" sodipodi:docname="New document 4" xmlns:inkscape="http://www.inkscape.org/namespaces/inkscape" xmlns:cc="http://creativecommons.org/ns#" xmlns:dc="http://purl.org/dc/elements/1.1/" xmlns:sodipodi="http://sodipodi.sourceforge.net/DTD/sodipodi-0.dtd" xmlns:rdf="http://www.w3.org/1999/02/22-rdf-syntax-ns#" xmlns:svg="http://www.w3.org/2000/svg"
	 xmlns="http://www.w3.org/2000/svg" xmlns:xlink="http://www.w3.org/1999/xlink" x="0px" y="0px" width="53.385px"
	 height="51.028px" viewBox="224.73 14.583 53.385 51.028" enable-background="new 224.73 14.583 53.385 51.028"
	 xml:space="preserve">
<sodipodi:namedview  id="base" inkscape:pageopacity="0.0" inkscape:pageshadow="2" inkscape:document-units="px" inkscape:current-layer="layer1" inkscape:window-width="1280" inkscape:window-height="750" inkscape:window-x="-8" inkscape:window-y="-8" fit-margin-right="0" fit-margin-bottom="0" inkscape:zoom="2.8" inkscape:cx="142.93233" borderopacity="1.0" showgrid="false" bordercolor="#666666" fit-margin-left="0" inkscape:cy="33.703355" pagecolor="#ffffff" fit-margin-top="0" inkscape:window-maximized="1">
	</sodipodi:namedview>
<g id="g3019" transform="matrix(1.018827,0,0,-1.018827,170.5996,498.03288)">
	<path id="path28" inkscape:connector-curvature="0" fill="#FFFFFF" d="M68.082,429.779v26.577h-8.835v-26.577H68.082z
		 M63.665,459.985c3.08,0,4.998,2.041,4.998,4.592c-0.058,2.608-1.918,4.592-4.939,4.592c-3.023,0-4.998-1.984-4.998-4.592
		c0-2.551,1.916-4.592,4.882-4.592H63.665L63.665,459.985z"/>
	<path id="path30" inkscape:connector-curvature="0" fill="#FFFFFF" d="M72.97,429.779h8.833v14.842
		c0,0.795,0.058,1.588,0.291,2.156c0.637,1.587,2.091,3.231,4.532,3.231c3.197,0,4.475-2.438,4.475-6.01v-14.219h8.833v15.239
		c0,8.163-4.357,11.962-10.17,11.962c-4.765,0-6.857-2.664-8.02-4.479h0.058v3.855H72.97
		C73.086,453.863,72.97,429.779,72.97,429.779L72.97,429.779z"/>
</g>
</svg>
