<svg xmlns="http://www.w3.org/2000/svg" xmlns:xlink="http://www.w3.org/1999/xlink" version="1.1" x="0px" y="0px" width="41.659px" height="19.188px" viewBox="0 0 41.659 19.188" enable-background="new 0 0 41.659 19.188" xml:space="preserve"><style>.style0{fill:	#007CBA;}</style><path d="M21.018 0.63c-1.376 0-2.461 1.026-2.461 2.344c0 0.8 0.6 1.3 1.6 1.3 c1.287 0 2.373-1.058 2.373-2.287c0-0.858-0.515-1.344-1.433-1.344H21.018L21.018 0.63z" class="style0"/><path d="M37.493 5.521c-0.941 0-6.892-0.286-8.321 6.436c-1.4 6.8 3.5 6.6 4.8 6.6 c1.118 0 4.005-0.177 5.752-2.376l-0.657-0.573c0 0-1.6 1.975-4.521 1.975c-2.923 0-2.35-3.486-1.918-5.093 c0.432-1.688 1.146-5.64 3.835-5.64c2.689 0 1.5 4.693-3.092 5.066l-0.255 1.086c0 0 6.637-0.085 7.776-3.948 C41.675 6.2 39.3 5.5 37.5 5.521z" class="style0"/><path d="M10.491 5.521c-1.057 0-1.631 0.117-2.346 0.401C7.174 6.3 6.6 6.8 5.8 8.064l0 0l0.143-0.604 l0.4-1.742H0.677l-0.2 0.861h1.401c0.515 0 0.8 0.1 0.8 0.427c0 0.1 0 0.143-0.03 0.231l-0.056 0.23l0 0l0 0L0.564 16.2 c-0.315 1.4 0.3 2.1 1.1 2.291c0.856 0.2 1.688-0.177 2.031-1.572l1.29-5.555C5.57 8.9 7.7 6.8 9.4 6.8 c0.913 0 1.3 0.5 1.3 1.435c0 0.172-0.03 0.457-0.117 0.804L8.977 16.19c-0.313 1.4 0.3 2.1 1.1 2.3 c0.86 0.2 1.688-0.177 2.034-1.572l1.831-7.929c0.115-0.454 0.172-1.001 0.172-1.284C14.152 6.1 13.1 5.5 10.5 5.521z" class="style0"/><path d="M21.419 5.749h-5.607L15.61 6.608h1.402c0.515 0 0.8 0.1 0.8 0.427c0 0.1 0 0.145-0.029 0.2 l-2.062 8.924c-0.313 1.4 0.3 2.1 1.1 2.319c0.859 0.2 1.688-0.177 2.032-1.572L21.419 5.749z" class="style0"/><path d="M23.821 0l-0.202 0.86h1.406c0.512 0 0.8 0.1 0.8 0.428c0 0.1 0 0.115-0.03 0.202l-3.401 14.7 c-0.313 1.4 0.3 2.1 1.1 2.287c0.858 0.2 1.686-0.177 2.031-1.569l3.949-16.937L23.821 0L23.821 0z" class="style0"/></svg>