<?xml version="1.0" encoding="utf-8"?>
<!-- Generator: Adobe Illustrator 15.0.0, SVG Export Plug-In . SVG Version: 6.00 Build 0)  -->
<!DOCTYPE svg PUBLIC "-//W3C//DTD SVG 1.1//EN" "http://www.w3.org/Graphics/SVG/1.1/DTD/svg11.dtd">
<svg version="1.1" id="Version_1" xmlns="http://www.w3.org/2000/svg" xmlns:xlink="http://www.w3.org/1999/xlink" x="0px" y="0px"
	 width="41.659px" height="19.188px" viewBox="0 0 41.659 19.188" enable-background="new 0 0 41.659 19.188" xml:space="preserve">
<path fill="#007CBA" d="M21.018,0.63c-1.376,0-2.461,1.026-2.461,2.344c0,0.83,0.571,1.288,1.602,1.288
	c1.287,0,2.373-1.058,2.373-2.287c0-0.858-0.515-1.344-1.433-1.344H21.018L21.018,0.63z"/>
<path fill="#007CBA" d="M37.493,5.521c-0.941,0-6.892-0.286-8.321,6.436c-1.4,6.752,3.488,6.554,4.776,6.554
	c1.118,0,4.005-0.177,5.752-2.376l-0.657-0.573c0,0-1.6,1.975-4.521,1.975c-2.923,0-2.35-3.486-1.918-5.093
	c0.432-1.688,1.146-5.64,3.835-5.64c2.689,0,1.521,4.693-3.092,5.066l-0.255,1.086c0,0,6.637-0.085,7.776-3.948
	C41.675,6.235,39.297,5.521,37.493,5.521z"/>
<path fill="#007CBA" d="M10.491,5.521c-1.057,0-1.631,0.117-2.346,0.401C7.174,6.318,6.627,6.811,5.771,8.064l0,0l0.143-0.604
	l0.4-1.742H0.677l-0.2,0.861h1.401c0.515,0,0.775,0.144,0.775,0.427c0,0.059,0,0.143-0.03,0.231l-0.056,0.23l0,0l0,0L0.564,16.19
	c-0.315,1.404,0.258,2.086,1.114,2.291c0.856,0.191,1.688-0.177,2.031-1.572l1.29-5.555C5.57,8.896,7.661,6.803,9.404,6.803
	c0.913,0,1.347,0.547,1.347,1.435c0,0.172-0.03,0.457-0.117,0.804L8.977,16.19c-0.313,1.404,0.26,2.086,1.114,2.291
	c0.86,0.198,1.688-0.177,2.034-1.572l1.831-7.929c0.115-0.454,0.172-1.001,0.172-1.284C14.152,6.124,13.149,5.521,10.491,5.521z"/>
<path fill="#007CBA" d="M21.419,5.749h-5.607L15.61,6.608h1.402c0.515,0,0.774,0.146,0.774,0.427c0,0.059,0,0.145-0.029,0.231
	l-2.062,8.924c-0.313,1.404,0.261,2.114,1.115,2.319c0.859,0.198,1.688-0.177,2.032-1.572L21.419,5.749z"/>
<path fill="#007CBA" d="M23.821,0l-0.202,0.86h1.406c0.512,0,0.771,0.143,0.771,0.428c0,0.057,0,0.115-0.03,0.202l-3.401,14.733
	c-0.313,1.404,0.259,2.089,1.116,2.287c0.858,0.205,1.686-0.177,2.031-1.569l3.949-16.937L23.821,0L23.821,0z"/>
</svg>
