<?xml version="1.0" encoding="utf-8"?>
<!-- Generator: Adobe Illustrator 15.0.0, SVG Export Plug-In . SVG Version: 6.00 Build 0)  -->
<!DOCTYPE svg PUBLIC "-//W3C//DTD SVG 1.1//EN" "http://www.w3.org/Graphics/SVG/1.1/DTD/svg11.dtd">
<svg version="1.1"
	 id="svg2" xmlns:cc="http://creativecommons.org/ns#" xmlns:dc="http://purl.org/dc/elements/1.1/" xmlns:rdf="http://www.w3.org/1999/02/22-rdf-syntax-ns#"
	 xmlns="http://www.w3.org/2000/svg" xmlns:xlink="http://www.w3.org/1999/xlink" x="0px" y="0px" width="55.42px"
	 height="45.039px" viewBox="0 0 55.42 45.039" enable-background="new 0 0 55.42 45.039" xml:space="preserve">
<g id="layer1" transform="translate(-282.32 -396.31)">
	<path id="path5" fill="#FFFFFF" d="M336.6,401.993c-1.997,0.887-4.145,1.484-6.396,1.754c2.299-1.379,4.065-3.563,4.896-6.162
		c-2.152,1.276-4.535,2.203-7.072,2.703c-2.031-2.165-4.926-3.518-8.129-3.518c-6.15,0-11.137,4.986-11.137,11.137
		c0,0.873,0.098,1.725,0.288,2.538c-9.256-0.464-17.462-4.897-22.955-11.636c-0.959,1.645-1.508,3.558-1.508,5.599
		c0,3.862,1.966,7.272,4.955,9.271c-1.825-0.059-3.542-0.56-5.044-1.394c-0.001,0.046-0.001,0.095-0.001,0.142
		c0,5.396,3.839,9.896,8.934,10.92c-0.935,0.254-1.919,0.391-2.935,0.391c-0.718,0-1.415-0.068-2.095-0.2
		c1.417,4.425,5.53,7.646,10.404,7.733c-3.812,2.988-8.614,4.769-13.832,4.769c-0.899,0-1.786-0.053-2.657-0.155
		c4.929,3.16,10.783,5.004,17.072,5.004c20.486,0,31.688-16.971,31.688-31.688c0-0.482-0.011-0.964-0.032-1.441
		c2.18-1.56,4.07-3.52,5.561-5.76L336.6,401.993z"/>
</g>
</svg>
